HIERARCHY
ROOT Hips
{
	OFFSET 0.00000 0.00000 0.00000
	CHANNELS 6 Xposition Yposition Zposition Zrotation Yrotation Xrotation 
	JOINT LHipJoint
	{
		OFFSET 0 0 0
		CHANNELS 3 Zrotation Yrotation Xrotation
		JOINT LeftHip
		{
			OFFSET 1.48831 -1.59570 0.95625
			CHANNELS 3 Zrotation Yrotation Xrotation
			JOINT LeftKnee
			{
				OFFSET 2.20856 -6.06797 0.00000
				CHANNELS 3 Zrotation Yrotation Xrotation
				JOINT LeftAnkle
				{
					OFFSET 2.62924 -7.22379 0.00000
					CHANNELS 3 Zrotation Yrotation Xrotation
					JOINT LeftToe
					{
						OFFSET 0.16802 -0.46163 2.41673
						CHANNELS 3 Zrotation Yrotation Xrotation
						End Site
						{
							OFFSET 0.00000 -0.00000 1.23760
						}
					}
				}
			}
		}
	}
	JOINT RHipJoint
	{
		OFFSET 0 0 0
		CHANNELS 3 Zrotation Yrotation Xrotation
		JOINT RightHip
		{
			OFFSET -1.56796 -1.59570 0.95625
			CHANNELS 3 Zrotation Yrotation Xrotation
			JOINT RightKnee
			{
				OFFSET -2.29239 -6.29829 0.00000
				CHANNELS 3 Zrotation Yrotation Xrotation
				JOINT RightAnkle
				{
					OFFSET -2.66963 -7.33475 0.00000
					CHANNELS 3 Zrotation Yrotation Xrotation
					JOINT RightToe
					{
						OFFSET -0.18185 -0.49964 2.34359
						CHANNELS 3 Zrotation Yrotation Xrotation
						End Site
						{
							OFFSET -0.00000 -0.00000 1.20477
						}
					}
				}
			}
		}
	}
	JOINT lowerback
	{
		OFFSET 0 0 0
		CHANNELS 3 Zrotation Yrotation Xrotation
		JOINT Chest
		{
			OFFSET 0.03505 2.15832 -0.34324
			CHANNELS 3 Zrotation Yrotation Xrotation
			JOINT Chest2
			{
				OFFSET -0.01089 2.17963 0.04689
				CHANNELS 3 Zrotation Yrotation Xrotation
				JOINT lowerneck
				{
					OFFSET 0 0 0
					CHANNELS 3 Zrotation Yrotation Xrotation
					JOINT Neck
					{
						OFFSET 0.04686 1.69404 0.22159
						CHANNELS 3 Zrotation Yrotation Xrotation
						JOINT Head
						{
							OFFSET 0.00265 1.69305 -0.01513
							CHANNELS 3 Zrotation Yrotation Xrotation
							End Site
							{
								OFFSET -0.00415 1.80215 -0.03034
							}
						}
					}
				}
				JOINT LeftCollar
				{
					OFFSET 0 0 0
					CHANNELS 3 Zrotation Yrotation Xrotation
					JOINT LeftShoulder
					{
						OFFSET 3.67184 1.11724 -0.19002
CHANNELS 3 Zrotation Xrotation Yrotation
						JOINT LeftElbow
						{
OFFSET 0 -5.177140 -0.000000
CHANNELS 3 Zrotation Xrotation Yrotation
							JOINT LeftWrist
							{
OFFSET 0 -3.436790 -0.000000
CHANNELS 3 Zrotation Xrotation Yrotation
								JOINT lhand
								{
									OFFSET 0 0 0
CHANNELS 3 Zrotation Xrotation Yrotation
									JOINT LFingers
									{
OFFSET 0 -0.573120 -0.000000
CHANNELS 3 Zrotation Xrotation Yrotation
										End Site
										{
OFFSET 0 -0.462060 -0.000000
										}
									}
								}
								JOINT LThumb
								{
OFFSET 0 0.000000 0.000000
CHANNELS 3 Zrotation Xrotation Yrotation
									End Site
									{
OFFSET 0 -0.469120 0.469120
									}
								}
							}
						}
					}
				}
				JOINT RightCollar
				{
					OFFSET 0 0 0
					CHANNELS 3 Zrotation Yrotation Xrotation
					JOINT RightShoulder
					{
						OFFSET -3.59596 0.95831 -0.26050
CHANNELS 3 Zrotation Xrotation Yrotation
						JOINT RightElbow
						{
OFFSET 0 -5.239080 -0.000000
CHANNELS 3 Zrotation Xrotation Yrotation
							JOINT RightWrist
							{
OFFSET 0 -3.464850 -0.000000
CHANNELS 3 Zrotation Xrotation Yrotation
								JOINT rhand
								{
									OFFSET 0 0 0
CHANNELS 3 Zrotation Xrotation Yrotation
									JOINT RFingers
									{
OFFSET 0 -0.608750 -0.000000
CHANNELS 3 Zrotation Xrotation Yrotation
										End Site
										{
OFFSET 0 -0.490790 -0.000000
										}
									}
								}
								JOINT RThumb
								{
OFFSET 0 0.000000 0.000000
CHANNELS 3 Zrotation Xrotation Yrotation
									End Site
									{
OFFSET 0 -0.498290 0.498290
									}
								}
							}
						}
					}
				}
			}
		}
	}
}
MOTION
Frames: 12
Frame Time: 0.008333333333333333
43.033400 15.984400 16.621400 -174.512000 -40.745400 177.509000 0.000000 0.000000 0.000000 -18.502600 15.299200 -15.390700 2.197300 9.265500 26.629500 1.381700 0.894100 -22.560700 0.002500 -0.325500 -0.894400 0.000000 0.000000 0.000000 21.025700 8.642700 -20.785800 -5.623600 -14.053400 43.451700 -1.868800 -5.916700 -28.505600 -0.010100 -0.648000 1.780800 0.387000 -1.259200 3.679400 0.011600 -1.881300 4.931300 -0.190600 -1.015700 2.998000 1.118800 -0.698300 -5.603800 7.400100 -1.200600 -3.894200 2.107700 -0.745100 -0.223700 -0.000000 0.000000 0.000000 2.576800 -3.661200 -20.061900 9.597800 -16.108100 1.361200 18.709400 -6.111100 -10.572600 0.000000 0.000000 0.000000 -7.125000 0.000000 0.000000 -7.403800 41.016100 -0.731900 -0.000000 0.000000 0.000000 -0.382400 2.483300 23.122800 -18.650300 -28.981800 -4.860200 -18.490700 2.154700 4.709700 0.000000 0.000000 0.000000 7.125000 0.000000 -0.000000 6.768900 34.880900 1.691700
43.046329 15.982937 16.617958 -174.617219 -40.727540 177.489316 0.000000 0.000000 0.000000 -18.530401 15.318920 -15.296699 2.192699 9.256436 26.600845 1.376598 0.946026 -22.539315 0.002425 -0.319479 -0.877771 0.000000 0.000000 0.000000 21.050534 8.520409 -20.097520 -5.606814 -14.036138 43.382366 -1.736271 -6.953332 -28.220313 -0.025802 -0.984461 2.706546 0.297443 -1.213297 3.509811 -0.062236 -1.813680 4.876704 -0.220460 -0.980557 3.036813 1.082905 -0.775899 -5.569447 7.346636 -1.305824 -3.579662 2.093343 -0.781118 -0.127764 0.000000 0.000000 0.000000 2.737209 -3.720178 -20.717817 9.858810 -16.518301 1.434633 18.842375 -6.999849 -10.142488 0.000000 0.000000 0.000000 -7.125000 0.000000 0.000000 -7.214265 40.579555 -0.790837 0.000000 0.000000 0.000000 -0.255925 2.634329 22.253189 -18.021702 -28.184756 -4.559575 -18.405206 2.752486 4.640152 0.000000 0.000000 0.000000 7.125000 0.000000 0.000000 6.831512 34.804358 1.720315
43.056982 15.980422 16.607639 -174.668604 -40.768034 177.433756 0.000000 0.000000 0.000000 -18.491871 15.307890 -15.179408 2.191622 9.254344 26.594105 1.374799 0.966772 -22.532761 0.002976 -0.351143 -0.964742 0.000000 0.000000 0.000000 21.128730 8.444192 -19.274189 -5.498170 -13.923664 42.932658 -1.597004 -7.527471 -27.620444 -0.014276 -0.771738 2.120953 0.263988 -1.199645 3.325483 -0.115674 -1.786787 4.800608 -0.260344 -0.963641 3.060475 1.078810 -0.814420 -5.585882 7.283122 -1.365056 -3.244657 2.070771 -0.793927 -0.018914 0.000000 0.000000 0.000000 2.883114 -3.701692 -21.409043 10.260741 -17.146320 1.551009 18.625370 -7.579554 -10.488550 0.000000 0.000000 0.000000 -7.125000 0.000000 0.000000 -7.462956 40.920867 -0.755090 0.000000 0.000000 0.000000 -0.175025 2.856748 21.490946 -17.454134 -27.452401 -4.294697 -18.415827 3.275349 4.696574 0.000000 0.000000 0.000000 7.125000 0.000000 0.000000 6.829029 34.863851 1.709692
43.064508 15.975919 16.590890 -174.881204 -40.810762 177.500638 0.000000 0.000000 0.000000 -18.582056 15.304387 -15.022007 2.182082 9.235553 26.534865 1.372671 0.994580 -22.525836 0.003951 -0.404641 -1.111956 0.000000 0.000000 0.000000 21.062264 8.478610 -18.403112 -5.297361 -13.710917 42.091775 -1.647915 -6.891551 -27.575473 -0.015461 -0.803548 2.208465 0.137929 -1.196058 3.096483 -0.188346 -1.772470 4.709634 -0.268895 -0.954966 3.095909 0.994936 -0.830964 -5.589422 7.272820 -1.390308 -2.907348 2.080698 -0.789390 0.088564 0.000000 0.000000 0.000000 3.014606 -3.692412 -22.087163 10.739835 -17.888353 1.695153 18.138431 -7.900275 -11.437038 0.000000 0.000000 0.000000 -7.125000 0.000000 0.000000 -8.063502 41.860130 -0.628940 0.000000 0.000000 0.000000 -0.123899 3.074436 20.787540 -16.911708 -26.741120 -4.047566 -18.398026 3.748272 4.709463 0.000000 0.000000 0.000000 7.125000 0.000000 0.000000 6.845091 34.876548 1.711722
43.069608 15.972496 16.568311 -175.210543 -40.835961 177.667301 0.000000 0.000000 0.000000 -18.769167 15.254213 -14.794829 2.159007 9.189764 26.390630 1.367939 1.104446 -22.530455 0.004852 -0.451495 -1.240612 0.000000 0.000000 0.000000 20.899343 8.551909 -17.587662 -5.044200 -13.433253 41.013028 -1.683449 -6.679938 -27.693064 -0.009438 -0.625336 1.718463 -0.053195 -1.184116 2.820474 -0.273888 -1.745285 4.603426 -0.255236 -0.941317 3.143492 0.862692 -0.844033 -5.553548 7.299637 -1.405586 -2.600371 2.112048 -0.781647 0.180671 0.000000 0.000000 0.000000 3.099797 -3.656020 -22.739736 11.228774 -18.637880 1.848497 18.121550 -8.533638 -11.738144 0.000000 0.000000 0.000000 -7.125000 0.000000 0.000000 -8.136420 42.170326 -0.572192 0.000000 0.000000 0.000000 -0.083323 3.284801 20.128962 -16.413240 -26.077530 -3.825916 -18.364318 4.198495 4.717011 0.000000 0.000000 0.000000 7.125000 0.000000 0.000000 6.873683 34.882862 1.717848
43.073895 15.970622 16.543463 -175.518152 -40.814839 177.841422 0.000000 0.000000 0.000000 -18.947548 15.101190 -14.523134 2.132337 9.136561 26.223431 1.360822 1.385828 -22.584335 0.006465 -0.517743 -1.422686 0.000000 0.000000 0.000000 20.777563 8.472363 -16.930870 -4.817503 -13.175266 40.028199 -1.703065 -6.748033 -27.868649 -0.007352 -0.554366 1.523400 -0.185321 -1.150034 2.509430 -0.360946 -1.687358 4.500630 -0.276800 -0.910403 3.212833 0.765140 -0.875424 -5.494457 7.291000 -1.443744 -2.362047 2.125570 -0.789117 0.247528 0.000000 0.000000 0.000000 3.149951 -3.627027 -23.299697 11.714543 -19.375171 2.006652 18.256744 -9.249618 -11.737665 0.000000 0.000000 0.000000 -7.125000 0.000000 0.000000 -8.016598 42.183225 -0.561102 0.000000 0.000000 0.000000 -0.022896 3.435370 19.471539 -15.953423 -25.457366 -3.625985 -18.325492 4.677751 4.744611 0.000000 0.000000 0.000000 7.125000 0.000000 0.000000 6.908643 34.909945 1.722117
43.077861 15.969624 16.518616 -175.749207 -40.739950 177.961713 0.000000 0.000000 0.000000 -19.067627 14.798320 -14.183935 2.106662 9.084748 26.060675 1.353809 1.838070 -22.714857 0.007376 -0.554806 -1.524458 0.000000 0.000000 0.000000 20.734766 8.184885 -16.446107 -4.648642 -12.976774 39.281807 -1.754125 -6.523259 -28.082828 -0.013613 -0.754153 2.072647 -0.218673 -1.113015 2.213739 -0.426466 -1.626160 4.403140 -0.330781 -0.875493 3.277225 0.697190 -0.900701 -5.498496 7.222825 -1.477868 -2.109331 2.114324 -0.793554 0.328442 0.000000 0.000000 0.000000 3.136685 -3.618411 -23.682836 12.185014 -20.081341 2.165456 18.284857 -9.812643 -11.853638 0.000000 0.000000 0.000000 -7.125000 0.000000 0.000000 -8.014198 42.306099 -0.536444 0.000000 0.000000 0.000000 0.017179 3.529152 18.896934 -15.551340 -24.908512 -3.454851 -18.278312 5.130262 4.765691 0.000000 0.000000 0.000000 7.125000 0.000000 0.000000 6.949924 34.929913 1.729142
43.084185 15.971297 16.493645 -175.873705 -40.611768 177.990559 0.000000 0.000000 0.000000 -19.096491 14.263717 -13.710748 2.076998 9.024604 25.872313 1.347077 2.513486 -22.958983 0.007024 -0.540156 -1.484195 0.000000 0.000000 0.000000 20.787710 7.916936 -16.036337 -4.516320 -12.817473 38.688963 -1.779538 -6.401257 -28.183567 -0.018373 -0.874913 2.404689 -0.173357 -1.077136 1.968533 -0.448994 -1.568698 4.314443 -0.383055 -0.841365 3.321626 0.603864 -0.921823 -5.469443 7.142187 -1.500606 -1.906570 2.103971 -0.794709 0.387914 0.000000 0.000000 0.000000 3.048967 -3.609373 -23.898883 12.640907 -20.758700 2.324532 18.295569 -10.264249 -11.963409 0.000000 0.000000 0.000000 -7.125000 0.000000 0.000000 -8.026175 42.420847 -0.514377 0.000000 0.000000 0.000000 0.017971 3.582600 18.470632 -15.230858 -24.466675 -3.320970 -18.292517 5.493968 4.814352 0.000000 0.000000 0.000000 7.125000 0.000000 0.000000 6.943645 34.981355 1.718750
43.092125 15.975719 16.469424 -175.891691 -40.428908 177.889265 0.000000 0.000000 0.000000 -19.029562 13.703505 -13.137984 2.044407 8.958009 25.664202 1.337565 3.283222 -23.247737 0.006699 -0.528662 -1.452794 0.000000 0.000000 0.000000 20.921515 7.755849 -15.613943 -4.407797 -12.684223 38.197518 -1.781081 -6.334597 -28.155494 -0.022013 -0.958474 2.634653 -0.054140 -1.046714 1.791491 -0.430740 -1.523482 4.264148 -0.433811 -0.812919 3.366865 0.514056 -0.921995 -5.391282 7.039298 -1.489340 -1.796435 2.086698 -0.783302 0.408386 0.000000 0.000000 0.000000 2.903291 -3.654851 -23.992851 13.035201 -21.338762 2.466066 18.403933 -10.635425 -11.910211 0.000000 0.000000 0.000000 -7.125000 0.000000 0.000000 -7.919444 42.376657 -0.516143 0.000000 0.000000 0.000000 -0.027602 3.559732 18.246852 -14.989712 -24.131779 -3.221760 -18.376838 5.714257 4.874060 0.000000 0.000000 0.000000 7.125000 0.000000 0.000000 6.880751 35.047488 1.691890
43.099867 15.981949 16.445464 -175.733098 -40.206002 177.604357 0.000000 0.000000 0.000000 -18.810254 13.087984 -12.482696 2.019142 8.905867 25.501195 1.327997 4.140352 -23.612687 0.005856 -0.493989 -1.357416 0.000000 0.000000 0.000000 21.197779 7.656092 -15.143153 -4.314369 -12.567333 37.769892 -1.772799 -6.234352 -28.041405 -0.026442 -1.048884 2.883370 0.201232 -1.023113 1.672221 -0.363869 -1.492815 4.258832 -0.510171 -0.789642 3.424243 0.504422 -0.881127 -5.374248 6.884241 -1.431077 -1.677194 2.039067 -0.748601 0.439032 0.000000 0.000000 0.000000 2.740355 -3.786658 -24.128779 13.319123 -21.752975 2.570340 18.551233 -11.016066 -11.814736 0.000000 0.000000 0.000000 -7.125000 0.000000 0.000000 -7.770334 42.292429 -0.522531 0.000000 0.000000 0.000000 -0.099783 3.458901 18.179768 -14.838163 -23.920259 -3.160006 -18.465785 5.823076 4.949901 0.000000 0.000000 0.000000 7.125000 0.000000 0.000000 6.815968 35.130879 1.661859
43.109068 15.989003 16.420370 -175.410060 -40.017984 177.218195 0.000000 0.000000 0.000000 -18.467927 12.227740 -11.796735 2.006045 8.878711 25.416700 1.321353 5.107818 -24.098208 0.003666 -0.390246 -1.072185 0.000000 0.000000 0.000000 21.621744 7.580207 -14.661724 -4.217595 -12.444430 37.322918 -1.762775 -6.182695 -27.943567 -0.031495 -1.144815 3.147406 0.559633 -1.011604 1.530483 -0.247584 -1.482259 4.273874 -0.594325 -0.773927 3.514527 0.583355 -0.847755 -5.361834 6.648605 -1.385944 -1.578117 1.949425 -0.721885 0.462694 0.000000 0.000000 0.000000 2.564730 -3.951328 -24.358350 13.546119 -22.082068 2.655086 18.607500 -11.379376 -11.848029 0.000000 0.000000 0.000000 -7.125000 0.000000 0.000000 -7.726629 42.332624 -0.511879 0.000000 0.000000 0.000000 -0.188265 3.327757 18.181363 -14.806591 -23.875953 -3.147262 -18.442969 5.833603 4.978178 0.000000 0.000000 0.000000 7.125000 0.000000 0.000000 6.837903 35.159440 1.662489
43.119557 15.995916 16.392083 -175.067850 -39.910038 176.845439 0.000000 0.000000 0.000000 -18.111667 11.383554 -11.173635 1.998363 8.862649 25.366627 1.315750 5.959762 -24.562685 0.001957 -0.286994 -0.788582 0.000000 0.000000 0.000000 22.080424 7.500417 -14.167164 -4.113641 -12.310115 36.837897 -1.761596 -6.206072 -27.948966 -0.036284 -1.229199 3.379806 0.872914 -1.025844 1.313431 -0.096589 -1.509695 4.305013 -0.620057 -0.778832 3.665646 0.639463 -0.826678 -5.303997 6.415741 -1.353235 -1.486665 1.864808 -0.702022 0.476978 0.000000 0.000000 0.000000 2.332728 -4.076268 -24.615801 13.771417 -22.406971 2.740411 18.632584 -11.733905 -11.838734 0.000000 0.000000 0.000000 -7.125000 0.000000 0.000000 -7.702641 42.325490 -0.511575 0.000000 0.000000 0.000000 -0.307883 3.200138 18.296201 -14.922621 -24.038281 -3.194392 -18.419724 5.675135 5.014057 0.000000 0.000000 0.000000 7.125000 0.000000 0.000000 6.861222 35.195810 1.662090
